<svg xmlns="http://www.w3.org/2000/svg" viewBox="0 0 156 34"><g id="Layer_2" data-name="Layer 2"><g id="Layer_1-2" data-name="Layer 1"><rect width="156" height="34" fill="#e2dcc3"/><path d="M20.81,19.7a7,7,0,0,1-.56,2.22A5.25,5.25,0,0,1,19,23.68a5.4,5.4,0,0,1-1.93,1.17,7.68,7.68,0,0,1-2.65.42,7.37,7.37,0,0,1-3-.57,5.87,5.87,0,0,1-2.16-1.6A6.76,6.76,0,0,1,8,20.62a11,11,0,0,1-.44-3.23A10.32,10.32,0,0,1,8,14.12a6.89,6.89,0,0,1,1.39-2.48,6,6,0,0,1,2.18-1.58,7.39,7.39,0,0,1,2.9-.54A8.09,8.09,0,0,1,17,9.87a5,5,0,0,1,1.78,1,5.34,5.34,0,0,1,1.17,1.62,8.77,8.77,0,0,1,.65,2.12l-3.11.4A4.19,4.19,0,0,0,16.56,13a2.65,2.65,0,0,0-2.09-.75,3.11,3.11,0,0,0-2.74,1.35,6.63,6.63,0,0,0-.94,3.83,6.35,6.35,0,0,0,1,3.85,3.18,3.18,0,0,0,2.68,1.34,2.76,2.76,0,0,0,2.13-.75,3.72,3.72,0,0,0,.85-2.13Z" fill="#c45227"/><path d="M23,9.9H26.1V22.2h7.1l-.34,2.69H23Z" fill="#c45227"/><path d="M40,9.9h3l5.63,15H45.21L44,21.42H38.76l-1.19,3.47H34.33Zm3.24,8.94-1.83-5.37-1.81,5.37Z" fill="#c45227"/><path d="M52.12,20A2.72,2.72,0,0,0,53,22a3.67,3.67,0,0,0,2.32.63,4.38,4.38,0,0,0,1.24-.15,2.52,2.52,0,0,0,.82-.42,1.57,1.57,0,0,0,.45-.62,2.21,2.21,0,0,0,.14-.78,1.68,1.68,0,0,0-.44-1.1,2.82,2.82,0,0,0-1.62-.75l-2-.36a12,12,0,0,1-2-.54,5,5,0,0,1-1.48-.87,3.51,3.51,0,0,1-.91-1.32,4.85,4.85,0,0,1-.32-1.84A4.05,4.05,0,0,1,49.65,12a3.86,3.86,0,0,1,1.2-1.37,5.66,5.66,0,0,1,1.84-.83A9.12,9.12,0,0,1,55,9.52a8.24,8.24,0,0,1,2.73.38,4.86,4.86,0,0,1,1.76,1,4,4,0,0,1,1,1.44A6.63,6.63,0,0,1,61,14l-3,.38a2.9,2.9,0,0,0-.89-1.78,3.07,3.07,0,0,0-2-.55,5.24,5.24,0,0,0-1.31.14,2.8,2.8,0,0,0-.83.35,1.2,1.2,0,0,0-.44.52A1.75,1.75,0,0,0,52.87,15a3.56,3.56,0,0,0,1.6.65l2.06.4a7.15,7.15,0,0,1,3.57,1.56,4.09,4.09,0,0,1,1.13,3.12,4.55,4.55,0,0,1-.36,1.82A4.24,4.24,0,0,1,59.78,24a5.24,5.24,0,0,1-1.82,1,8.52,8.52,0,0,1-2.56.35A7.37,7.37,0,0,1,50.7,24,5.13,5.13,0,0,1,49,20Z" fill="#c45227"/><path d="M65.87,20a2.72,2.72,0,0,0,.9,2,3.65,3.65,0,0,0,2.32.63,4.43,4.43,0,0,0,1.24-.15,2.63,2.63,0,0,0,.82-.42,1.57,1.57,0,0,0,.45-.62,2.2,2.2,0,0,0,.13-.78,1.63,1.63,0,0,0-.44-1.1,2.78,2.78,0,0,0-1.61-.75l-2-.36a11.64,11.64,0,0,1-2-.54,4.82,4.82,0,0,1-1.48-.87,3.53,3.53,0,0,1-.92-1.32A4.85,4.85,0,0,1,63,13.89,3.93,3.93,0,0,1,63.41,12a3.74,3.74,0,0,1,1.19-1.37,5.86,5.86,0,0,1,1.84-.83,9.18,9.18,0,0,1,2.35-.28,8.16,8.16,0,0,1,2.73.38,5,5,0,0,1,1.77,1,4,4,0,0,1,1,1.44,7.07,7.07,0,0,1,.43,1.7l-3,.38a3,3,0,0,0-.9-1.78,3.06,3.06,0,0,0-2-.55,5.39,5.39,0,0,0-1.32.14,2.73,2.73,0,0,0-.82.35,1.3,1.3,0,0,0-.45.52,1.58,1.58,0,0,0-.12.61A1.61,1.61,0,0,0,66.62,15a3.61,3.61,0,0,0,1.61.65l2,.4a7.07,7.07,0,0,1,3.57,1.56A4.09,4.09,0,0,1,75,20.69a4.39,4.39,0,0,1-.37,1.82A4.11,4.11,0,0,1,73.53,24a5.16,5.16,0,0,1-1.82,1,8.52,8.52,0,0,1-2.56.35A7.34,7.34,0,0,1,64.46,24a5.14,5.14,0,0,1-1.76-4Z" fill="#c45227"/><path d="M77.19,9.9h5.4a10,10,0,0,1,2.74.31,4.57,4.57,0,0,1,1.71.86,2.88,2.88,0,0,1,.87,1.28,4.88,4.88,0,0,1,.25,1.6,3.78,3.78,0,0,1-.38,1.66,3,3,0,0,1-1.43,1.32,5.25,5.25,0,0,1,1.1.75,3,3,0,0,1,.67.83,2.83,2.83,0,0,1,.34.9,4.88,4.88,0,0,1,.1.92,5.55,5.55,0,0,1-.29,1.79,3.47,3.47,0,0,1-.94,1.45,4.67,4.67,0,0,1-1.74,1,8.33,8.33,0,0,1-2.64.36H77.19ZM83,15.84a2.45,2.45,0,0,0,1.7-.46,1.79,1.79,0,0,0,.46-1.33,1.45,1.45,0,0,0-.6-1.31,3.87,3.87,0,0,0-2-.39H80.22v3.49Zm-.11,6.59a5.13,5.13,0,0,0,1.29-.14,2.17,2.17,0,0,0,.83-.43,1.59,1.59,0,0,0,.45-.67,2.84,2.84,0,0,0,.12-.86A2,2,0,0,0,85,18.86a2.7,2.7,0,0,0-1.85-.5H80.22v4.07Z" fill="#c45227"/><path d="M97.46,25.27a7.68,7.68,0,0,1-3-.55,6,6,0,0,1-2.25-1.57,7.12,7.12,0,0,1-1.42-2.48,10.14,10.14,0,0,1-.49-3.28,10,10,0,0,1,.49-3.27,7,7,0,0,1,1.43-2.48,6.24,6.24,0,0,1,2.26-1.58,8.55,8.55,0,0,1,6,0,6.08,6.08,0,0,1,2.24,1.58,7.06,7.06,0,0,1,1.4,2.48,10.32,10.32,0,0,1,.48,3.27,10.73,10.73,0,0,1-.47,3.28,7.07,7.07,0,0,1-1.39,2.48,6,6,0,0,1-2.24,1.57A7.75,7.75,0,0,1,97.46,25.27Zm0-2.69a3.41,3.41,0,0,0,2.94-1.34,6.57,6.57,0,0,0,1-3.85,6.55,6.55,0,0,0-1-3.83,3.88,3.88,0,0,0-5.88,0,6.47,6.47,0,0,0-1,3.83,6.5,6.5,0,0,0,1,3.85A3.38,3.38,0,0,0,97.44,22.58Z" fill="#c45227"/><path d="M110.63,9.9h3l5.63,15h-3.36l-1.2-3.47h-5.25l-1.2,3.47H105Zm3.23,8.94L112,13.47l-1.8,5.37Z" fill="#c45227"/><path d="M121,9.9h5.31a8.56,8.56,0,0,1,2.91.41A4.64,4.64,0,0,1,131,11.38a3.58,3.58,0,0,1,.91,1.47,5.2,5.2,0,0,1,.25,1.58,5.15,5.15,0,0,1-.52,2.44,4.15,4.15,0,0,1-1.77,1.66l3,6.36h-3.38L127,19.26h-2.94v5.63H121Zm5.52,6.76a3.84,3.84,0,0,0,1.22-.16,1.86,1.86,0,0,0,.77-.44,1.48,1.48,0,0,0,.38-.68,3.5,3.5,0,0,0,.11-.89,2.17,2.17,0,0,0-.13-.76,1.46,1.46,0,0,0-.43-.65,2,2,0,0,0-.84-.44,4.66,4.66,0,0,0-1.35-.16h-2.16v4.18Z" fill="#c45227"/><path d="M134.69,9.9h5.61a7.39,7.39,0,0,1,5.36,1.86,7.39,7.39,0,0,1,1.93,5.55,9.07,9.07,0,0,1-.54,3.27,6.19,6.19,0,0,1-4,3.83,10.43,10.43,0,0,1-3.28.48h-5.08Zm5.15,12.32a5.63,5.63,0,0,0,2.08-.34,3.41,3.41,0,0,0,1.39-1,4.25,4.25,0,0,0,.79-1.54,7.37,7.37,0,0,0,.25-2,8.05,8.05,0,0,0-.22-2,4,4,0,0,0-.7-1.51,3.21,3.21,0,0,0-1.25-.94,4.58,4.58,0,0,0-1.88-.34h-2.48v9.66Z" fill="#c45227"/></g></g></svg>